<svg width="50" height="50" viewBox="0 0 50 50" fill="none" xmlns="http://www.w3.org/2000/svg">
<path d="M44.3772 5.98634C43.8901 6.00771 43.416 6.14326 42.9885 6.31447C42.5653 6.48452 40.1291 7.52435 36.5315 9.06251C32.9338 10.6007 28.2572 12.6037 23.6213 14.5899C14.3496 18.5622 5.23851 22.4707 5.23851 22.4707L5.30492 22.4453C5.30492 22.4453 4.75502 22.6291 4.1975 23.0176C3.91874 23.2118 3.61883 23.4626 3.37328 23.8281C3.12772 24.1937 2.9482 24.7118 3.01586 25.2598C3.25348 27.1845 5.24828 27.7305 5.24828 27.7305L5.25609 27.7344L14.1584 30.7813C14.3854 31.5384 16.8585 39.7929 17.4026 41.541C17.703 42.5075 17.9842 43.065 18.2776 43.4453C18.4244 43.6356 18.5782 43.7829 18.7483 43.8906C18.8159 43.9334 18.8869 43.9655 18.9573 43.9942H18.9612C18.9698 43.998 18.9779 43.9983 18.9866 44.002L18.9631 43.9961C18.9795 44.0027 18.9956 44.0138 19.0119 44.0195C19.0437 44.0307 19.0631 44.0303 19.1037 44.0391C20.1233 44.3951 20.967 43.7344 20.967 43.7344L21.0022 43.707L26.4709 38.6348L35.3459 45.5547L35.4573 45.6055C37.0107 46.2952 38.4156 45.9104 39.1936 45.2774C39.9716 44.6443 40.2776 43.8281 40.2776 43.8281L40.3108 43.7422L46.8323 9.75197C46.9991 8.99153 47.0228 8.33421 46.8655 7.74025C46.7081 7.14628 46.3257 6.62995 45.8459 6.34376C45.3661 6.05758 44.8642 5.96497 44.3772 5.98634ZM44.4299 8.01954C44.6277 8.01038 44.7743 8.033 44.8205 8.06056C44.8668 8.08812 44.8875 8.0845 44.9319 8.25197C44.9762 8.41944 45.0003 8.77217 44.8791 9.32423L44.8752 9.33595L38.3909 43.1289C38.3755 43.1629 38.2404 43.4755 37.9319 43.7266C37.6171 43.9827 37.2671 44.1826 36.3381 43.793L26.633 36.2246L26.3596 36.0098L26.3537 36.0156L23.4514 33.8379L39.7619 14.6485C39.8873 14.5014 39.9673 14.3212 39.9924 14.1296C40.0175 13.938 39.9865 13.7432 39.9032 13.5688C39.82 13.3945 39.688 13.248 39.5232 13.147C39.3585 13.0461 39.168 12.995 38.9748 13C38.7861 13.0049 38.6026 13.0631 38.4455 13.168L14.844 28.9024L5.92796 25.8496C5.92796 25.8496 5.04261 25.3569 5.00023 25.0137C4.99788 24.9947 4.98743 25.0119 5.03343 24.9434C5.07944 24.8749 5.19508 24.7592 5.34007 24.6582C5.63005 24.4562 5.96117 24.334 5.96117 24.334L5.99437 24.3223L6.02757 24.3086C6.02757 24.3086 15.1391 20.3999 24.4104 16.4277C29.046 14.4417 33.7218 12.4401 37.3186 10.9024C40.9144 9.36497 43.5126 8.25838 43.7327 8.16993C43.9831 8.06964 44.2321 8.0287 44.4299 8.01954ZM33.6135 18.793L21.2444 33.3457L21.2385 33.3516C21.2192 33.3748 21.201 33.3989 21.1838 33.4238C21.1642 33.4509 21.146 33.4789 21.1291 33.5078C21.0596 33.6258 21.0151 33.7567 20.9983 33.8926C20.9983 33.8952 20.9983 33.8978 20.9983 33.9004L19.3869 41.1465C19.3602 41.0682 19.3414 41.0396 19.3127 40.9473V40.9453C18.8009 39.3009 16.4676 31.5161 16.1448 30.4395L33.6135 18.793ZM22.6409 35.7305L24.8635 37.3984L21.5979 40.4258L22.6409 35.7305Z" fill="white"/>
</svg>
